# xmcd
#
# Track frame offsets:
#	150
#	16513
#	40789
#	67691
#	81191
#	109022
#	131062
#	151821
#	170107
#	191203
#	203120
#	230909
#
# Disc length: 3416 seconds
#
# Revision: 1
# Processed by: cddbd v1.5.2PL0 Copyright (c) Steve Scherf et al.
# Submitted via: audiograbber 1.83.01
#
DISCID=990d560c
DTITLE=Various Artist - Bar Jazz 6 Box-Set [CD 3) - 'round Midnight [CD-R]
DYEAR=2005
DGENRE=Jazz
TTITLE0=Henry Mancini and His Orchestra - Misty
TTITLE1=Cleo Laine - Dreamsville
TTITLE2=Stanley Clarke - Lucky Again
TTITLE3=Lisa Ekdahl - I'm A Fool To Want You
TTITLE4=Ellis and Branford Marsalis - Maria
TTITLE5=Carmen McRae - How I Wish....
TTITLE6=Warren Hill - It's Always Been You
TTITLE7=Gary Burton - Sing Me Softly Of The Blues
TTITLE8=Etta James - At Last
TTITLE9=Henry Mancini - The "Pink Panther" Theme
TTITLE10=Joel Harrison and Norah Jones - Tennessee Waltz
TTITLE11=Gato Barbieri - Straight Into The Sunrise
EXTD=
EXTT0=
EXTT1=
EXTT2=
EXTT3=
EXTT4=
EXTT5=
EXTT6=
EXTT7=
EXTT8=
EXTT9=
EXTT10=
EXTT11=
PLAYORDER=
